<mxfile host="app.diagrams.net" agent="Mozilla/5.0 (Windows NT 10.0; Win64; x64) AppleWebKit/537.36 (KHTML, like Gecko) Chrome/129.0.0.0 Safari/537.36" version="24.8.1">
  <diagram name="Сторінка-1" id="7mDMlHPUfOCCT9T68GMa">
    <mxGraphModel grid="1" page="1" gridSize="10" guides="1" tooltips="1" connect="1" arrows="1" fold="1" pageScale="1" pageWidth="827" pageHeight="1169" math="0" shadow="0">
      <root>
        <mxCell id="0" />
        <mxCell id="1" parent="0" />
        <mxCell id="JlIgbwBgRPBbhnpNCOYC-2" style="edgeStyle=orthogonalEdgeStyle;rounded=0;orthogonalLoop=1;jettySize=auto;html=1;" edge="1" parent="1" source="JlIgbwBgRPBbhnpNCOYC-1" target="JlIgbwBgRPBbhnpNCOYC-3">
          <mxGeometry relative="1" as="geometry">
            <mxPoint x="290" y="190" as="targetPoint" />
          </mxGeometry>
        </mxCell>
        <mxCell id="JlIgbwBgRPBbhnpNCOYC-1" value="Start" style="ellipse;whiteSpace=wrap;html=1;fillColor=#d5e8d4;strokeColor=#82b366;" vertex="1" parent="1">
          <mxGeometry x="230" y="40" width="120" height="80" as="geometry" />
        </mxCell>
        <mxCell id="JlIgbwBgRPBbhnpNCOYC-4" style="edgeStyle=orthogonalEdgeStyle;rounded=0;orthogonalLoop=1;jettySize=auto;html=1;" edge="1" parent="1" source="JlIgbwBgRPBbhnpNCOYC-3" target="JlIgbwBgRPBbhnpNCOYC-5">
          <mxGeometry relative="1" as="geometry">
            <mxPoint x="290" y="290" as="targetPoint" />
          </mxGeometry>
        </mxCell>
        <mxCell id="JlIgbwBgRPBbhnpNCOYC-3" value="string weather&lt;div&gt;int weath&lt;/div&gt;" style="rounded=0;whiteSpace=wrap;html=1;" vertex="1" parent="1">
          <mxGeometry x="230" y="150" width="120" height="60" as="geometry" />
        </mxCell>
        <mxCell id="JlIgbwBgRPBbhnpNCOYC-6" style="edgeStyle=orthogonalEdgeStyle;rounded=0;orthogonalLoop=1;jettySize=auto;html=1;" edge="1" parent="1" source="JlIgbwBgRPBbhnpNCOYC-5" target="JlIgbwBgRPBbhnpNCOYC-7">
          <mxGeometry relative="1" as="geometry">
            <mxPoint x="290" y="359.9999999999998" as="targetPoint" />
          </mxGeometry>
        </mxCell>
        <mxCell id="JlIgbwBgRPBbhnpNCOYC-5" value="cin weather" style="shape=parallelogram;perimeter=parallelogramPerimeter;whiteSpace=wrap;html=1;fixedSize=1;" vertex="1" parent="1">
          <mxGeometry x="230" y="240" width="120" height="60" as="geometry" />
        </mxCell>
        <mxCell id="JlIgbwBgRPBbhnpNCOYC-8" style="edgeStyle=orthogonalEdgeStyle;rounded=0;orthogonalLoop=1;jettySize=auto;html=1;" edge="1" parent="1" source="JlIgbwBgRPBbhnpNCOYC-7" target="JlIgbwBgRPBbhnpNCOYC-9">
          <mxGeometry relative="1" as="geometry">
            <mxPoint x="380" y="379.99999999999955" as="targetPoint" />
          </mxGeometry>
        </mxCell>
        <mxCell id="JlIgbwBgRPBbhnpNCOYC-56" style="edgeStyle=orthogonalEdgeStyle;rounded=0;orthogonalLoop=1;jettySize=auto;html=1;entryX=1;entryY=0;entryDx=0;entryDy=0;" edge="1" parent="1" source="JlIgbwBgRPBbhnpNCOYC-7" target="JlIgbwBgRPBbhnpNCOYC-58">
          <mxGeometry relative="1" as="geometry">
            <mxPoint x="140" y="385" as="targetPoint" />
            <Array as="points">
              <mxPoint x="177" y="385" />
              <mxPoint x="177" y="413" />
              <mxPoint x="90" y="413" />
            </Array>
          </mxGeometry>
        </mxCell>
        <mxCell id="JlIgbwBgRPBbhnpNCOYC-7" value="weather == sunny" style="rhombus;whiteSpace=wrap;html=1;" vertex="1" parent="1">
          <mxGeometry x="235" y="330" width="110" height="110" as="geometry" />
        </mxCell>
        <mxCell id="JlIgbwBgRPBbhnpNCOYC-11" style="edgeStyle=orthogonalEdgeStyle;rounded=0;orthogonalLoop=1;jettySize=auto;html=1;" edge="1" parent="1" source="JlIgbwBgRPBbhnpNCOYC-9" target="JlIgbwBgRPBbhnpNCOYC-12">
          <mxGeometry relative="1" as="geometry">
            <mxPoint x="460" y="460" as="targetPoint" />
          </mxGeometry>
        </mxCell>
        <mxCell id="JlIgbwBgRPBbhnpNCOYC-9" value="A great day for a picnic!" style="shape=parallelogram;perimeter=parallelogramPerimeter;whiteSpace=wrap;html=1;fixedSize=1;" vertex="1" parent="1">
          <mxGeometry x="400" y="354.99999999999955" width="120" height="60" as="geometry" />
        </mxCell>
        <mxCell id="JlIgbwBgRPBbhnpNCOYC-10" value="Так" style="text;html=1;align=center;verticalAlign=middle;resizable=0;points=[];autosize=1;strokeColor=none;fillColor=none;" vertex="1" parent="1">
          <mxGeometry x="355" y="360" width="40" height="30" as="geometry" />
        </mxCell>
        <mxCell id="JlIgbwBgRPBbhnpNCOYC-13" style="edgeStyle=orthogonalEdgeStyle;rounded=0;orthogonalLoop=1;jettySize=auto;html=1;" edge="1" parent="1" source="JlIgbwBgRPBbhnpNCOYC-12" target="JlIgbwBgRPBbhnpNCOYC-14">
          <mxGeometry relative="1" as="geometry">
            <mxPoint x="460" y="570" as="targetPoint" />
          </mxGeometry>
        </mxCell>
        <mxCell id="JlIgbwBgRPBbhnpNCOYC-12" value="weath = 0" style="rounded=0;whiteSpace=wrap;html=1;" vertex="1" parent="1">
          <mxGeometry x="400" y="460" width="120" height="60" as="geometry" />
        </mxCell>
        <mxCell id="JlIgbwBgRPBbhnpNCOYC-66" style="edgeStyle=orthogonalEdgeStyle;rounded=0;orthogonalLoop=1;jettySize=auto;html=1;exitX=0;exitY=0.5;exitDx=0;exitDy=0;entryX=0.5;entryY=0;entryDx=0;entryDy=0;" edge="1" parent="1" source="JlIgbwBgRPBbhnpNCOYC-14" target="JlIgbwBgRPBbhnpNCOYC-68">
          <mxGeometry relative="1" as="geometry">
            <mxPoint x="330" y="610.6666666666665" as="targetPoint" />
          </mxGeometry>
        </mxCell>
        <mxCell id="JlIgbwBgRPBbhnpNCOYC-67" value="Hi" style="edgeLabel;html=1;align=center;verticalAlign=middle;resizable=0;points=[];" connectable="0" vertex="1" parent="JlIgbwBgRPBbhnpNCOYC-66">
          <mxGeometry x="-0.1393" y="-2" relative="1" as="geometry">
            <mxPoint as="offset" />
          </mxGeometry>
        </mxCell>
        <mxCell id="JlIgbwBgRPBbhnpNCOYC-14" value="weather == snowy || weather = rainy" style="rhombus;whiteSpace=wrap;html=1;" vertex="1" parent="1">
          <mxGeometry x="395" y="550" width="130" height="120" as="geometry" />
        </mxCell>
        <mxCell id="JlIgbwBgRPBbhnpNCOYC-19" style="edgeStyle=orthogonalEdgeStyle;rounded=0;orthogonalLoop=1;jettySize=auto;html=1;" edge="1" parent="1" source="JlIgbwBgRPBbhnpNCOYC-18" target="JlIgbwBgRPBbhnpNCOYC-20">
          <mxGeometry relative="1" as="geometry">
            <mxPoint x="670" y="690.0000000000002" as="targetPoint" />
          </mxGeometry>
        </mxCell>
        <mxCell id="JlIgbwBgRPBbhnpNCOYC-18" value="Put on a jacket" style="shape=parallelogram;perimeter=parallelogramPerimeter;whiteSpace=wrap;html=1;fixedSize=1;" vertex="1" parent="1">
          <mxGeometry x="590" y="600" width="105" height="60" as="geometry" />
        </mxCell>
        <mxCell id="JlIgbwBgRPBbhnpNCOYC-21" style="edgeStyle=orthogonalEdgeStyle;rounded=0;orthogonalLoop=1;jettySize=auto;html=1;" edge="1" parent="1" source="JlIgbwBgRPBbhnpNCOYC-20" target="JlIgbwBgRPBbhnpNCOYC-22">
          <mxGeometry relative="1" as="geometry">
            <mxPoint x="670" y="820" as="targetPoint" />
          </mxGeometry>
        </mxCell>
        <mxCell id="JlIgbwBgRPBbhnpNCOYC-20" value="weath =&amp;nbsp;" style="rhombus;whiteSpace=wrap;html=1;" vertex="1" parent="1">
          <mxGeometry x="630" y="690.0000000000002" width="80" height="80" as="geometry" />
        </mxCell>
        <mxCell id="JlIgbwBgRPBbhnpNCOYC-23" style="edgeStyle=orthogonalEdgeStyle;rounded=0;orthogonalLoop=1;jettySize=auto;html=1;" edge="1" parent="1" source="JlIgbwBgRPBbhnpNCOYC-22" target="JlIgbwBgRPBbhnpNCOYC-24">
          <mxGeometry relative="1" as="geometry">
            <mxPoint x="753.4782608695652" y="830" as="targetPoint" />
          </mxGeometry>
        </mxCell>
        <mxCell id="JlIgbwBgRPBbhnpNCOYC-25" style="edgeStyle=orthogonalEdgeStyle;rounded=0;orthogonalLoop=1;jettySize=auto;html=1;" edge="1" parent="1" source="JlIgbwBgRPBbhnpNCOYC-22" target="JlIgbwBgRPBbhnpNCOYC-26">
          <mxGeometry relative="1" as="geometry">
            <mxPoint x="670" y="930" as="targetPoint" />
          </mxGeometry>
        </mxCell>
        <mxCell id="JlIgbwBgRPBbhnpNCOYC-22" value="0" style="ellipse;whiteSpace=wrap;html=1;aspect=fixed;" vertex="1" parent="1">
          <mxGeometry x="640" y="800" width="60" height="60" as="geometry" />
        </mxCell>
        <mxCell id="JlIgbwBgRPBbhnpNCOYC-29" style="edgeStyle=orthogonalEdgeStyle;rounded=0;orthogonalLoop=1;jettySize=auto;html=1;" edge="1" parent="1" source="JlIgbwBgRPBbhnpNCOYC-24" target="JlIgbwBgRPBbhnpNCOYC-31">
          <mxGeometry relative="1" as="geometry">
            <mxPoint x="970" y="830" as="targetPoint" />
          </mxGeometry>
        </mxCell>
        <mxCell id="JlIgbwBgRPBbhnpNCOYC-24" value="Wear your favorite sneakers!" style="shape=parallelogram;perimeter=parallelogramPerimeter;whiteSpace=wrap;html=1;fixedSize=1;" vertex="1" parent="1">
          <mxGeometry x="800" y="800" width="130" height="60" as="geometry" />
        </mxCell>
        <mxCell id="JlIgbwBgRPBbhnpNCOYC-27" style="edgeStyle=orthogonalEdgeStyle;rounded=0;orthogonalLoop=1;jettySize=auto;html=1;" edge="1" parent="1" source="JlIgbwBgRPBbhnpNCOYC-26" target="JlIgbwBgRPBbhnpNCOYC-28">
          <mxGeometry relative="1" as="geometry">
            <mxPoint x="820" y="930" as="targetPoint" />
          </mxGeometry>
        </mxCell>
        <mxCell id="JlIgbwBgRPBbhnpNCOYC-34" style="edgeStyle=orthogonalEdgeStyle;rounded=0;orthogonalLoop=1;jettySize=auto;html=1;" edge="1" parent="1" source="JlIgbwBgRPBbhnpNCOYC-26" target="JlIgbwBgRPBbhnpNCOYC-35">
          <mxGeometry relative="1" as="geometry">
            <mxPoint x="670" y="1010" as="targetPoint" />
          </mxGeometry>
        </mxCell>
        <mxCell id="JlIgbwBgRPBbhnpNCOYC-26" value="1" style="ellipse;whiteSpace=wrap;html=1;aspect=fixed;" vertex="1" parent="1">
          <mxGeometry x="640" y="900" width="60" height="60" as="geometry" />
        </mxCell>
        <mxCell id="JlIgbwBgRPBbhnpNCOYC-32" style="edgeStyle=orthogonalEdgeStyle;rounded=0;orthogonalLoop=1;jettySize=auto;html=1;" edge="1" parent="1" source="JlIgbwBgRPBbhnpNCOYC-28" target="JlIgbwBgRPBbhnpNCOYC-33">
          <mxGeometry relative="1" as="geometry">
            <mxPoint x="1040" y="930" as="targetPoint" />
          </mxGeometry>
        </mxCell>
        <mxCell id="JlIgbwBgRPBbhnpNCOYC-28" value="Rain boots are a good idea!" style="shape=parallelogram;perimeter=parallelogramPerimeter;whiteSpace=wrap;html=1;fixedSize=1;" vertex="1" parent="1">
          <mxGeometry x="780" y="900" width="180" height="60" as="geometry" />
        </mxCell>
        <mxCell id="JlIgbwBgRPBbhnpNCOYC-116" style="edgeStyle=orthogonalEdgeStyle;rounded=0;orthogonalLoop=1;jettySize=auto;html=1;" edge="1" parent="1" source="JlIgbwBgRPBbhnpNCOYC-31" target="JlIgbwBgRPBbhnpNCOYC-92">
          <mxGeometry relative="1" as="geometry">
            <mxPoint x="1380" y="1520" as="targetPoint" />
            <Array as="points">
              <mxPoint x="1300" y="830" />
              <mxPoint x="1300" y="1520" />
            </Array>
          </mxGeometry>
        </mxCell>
        <mxCell id="JlIgbwBgRPBbhnpNCOYC-31" value="break" style="rounded=0;whiteSpace=wrap;html=1;" vertex="1" parent="1">
          <mxGeometry x="990" y="800" width="120" height="60" as="geometry" />
        </mxCell>
        <mxCell id="JlIgbwBgRPBbhnpNCOYC-118" style="edgeStyle=orthogonalEdgeStyle;rounded=0;orthogonalLoop=1;jettySize=auto;html=1;" edge="1" parent="1" source="JlIgbwBgRPBbhnpNCOYC-33">
          <mxGeometry relative="1" as="geometry">
            <mxPoint x="1300" y="930" as="targetPoint" />
          </mxGeometry>
        </mxCell>
        <mxCell id="JlIgbwBgRPBbhnpNCOYC-33" value="break" style="rounded=0;whiteSpace=wrap;html=1;" vertex="1" parent="1">
          <mxGeometry x="1000" y="900" width="120" height="60" as="geometry" />
        </mxCell>
        <mxCell id="JlIgbwBgRPBbhnpNCOYC-36" style="edgeStyle=orthogonalEdgeStyle;rounded=0;orthogonalLoop=1;jettySize=auto;html=1;exitX=1;exitY=0.5;exitDx=0;exitDy=0;" edge="1" parent="1" source="JlIgbwBgRPBbhnpNCOYC-35" target="JlIgbwBgRPBbhnpNCOYC-37">
          <mxGeometry relative="1" as="geometry">
            <mxPoint x="820" y="1019.826086956522" as="targetPoint" />
          </mxGeometry>
        </mxCell>
        <mxCell id="JlIgbwBgRPBbhnpNCOYC-40" style="edgeStyle=orthogonalEdgeStyle;rounded=0;orthogonalLoop=1;jettySize=auto;html=1;exitX=0.5;exitY=1;exitDx=0;exitDy=0;" edge="1" parent="1" source="JlIgbwBgRPBbhnpNCOYC-35" target="JlIgbwBgRPBbhnpNCOYC-41">
          <mxGeometry relative="1" as="geometry">
            <mxPoint x="670" y="1090" as="targetPoint" />
          </mxGeometry>
        </mxCell>
        <mxCell id="JlIgbwBgRPBbhnpNCOYC-35" value="2" style="ellipse;whiteSpace=wrap;html=1;aspect=fixed;" vertex="1" parent="1">
          <mxGeometry x="640" y="990" width="60" height="60" as="geometry" />
        </mxCell>
        <mxCell id="JlIgbwBgRPBbhnpNCOYC-38" style="edgeStyle=orthogonalEdgeStyle;rounded=0;orthogonalLoop=1;jettySize=auto;html=1;" edge="1" parent="1" source="JlIgbwBgRPBbhnpNCOYC-37" target="JlIgbwBgRPBbhnpNCOYC-39">
          <mxGeometry relative="1" as="geometry">
            <mxPoint x="990" y="1020" as="targetPoint" />
          </mxGeometry>
        </mxCell>
        <mxCell id="JlIgbwBgRPBbhnpNCOYC-37" value="Today, any shoe is suitable." style="shape=parallelogram;perimeter=parallelogramPerimeter;whiteSpace=wrap;html=1;fixedSize=1;" vertex="1" parent="1">
          <mxGeometry x="790" y="990" width="140" height="60" as="geometry" />
        </mxCell>
        <mxCell id="JlIgbwBgRPBbhnpNCOYC-119" style="edgeStyle=orthogonalEdgeStyle;rounded=0;orthogonalLoop=1;jettySize=auto;html=1;" edge="1" parent="1" source="JlIgbwBgRPBbhnpNCOYC-39">
          <mxGeometry relative="1" as="geometry">
            <mxPoint x="1300" y="1020" as="targetPoint" />
          </mxGeometry>
        </mxCell>
        <mxCell id="JlIgbwBgRPBbhnpNCOYC-39" value="break" style="rounded=0;whiteSpace=wrap;html=1;" vertex="1" parent="1">
          <mxGeometry x="1000" y="990" width="120" height="60" as="geometry" />
        </mxCell>
        <mxCell id="JlIgbwBgRPBbhnpNCOYC-42" style="edgeStyle=orthogonalEdgeStyle;rounded=0;orthogonalLoop=1;jettySize=auto;html=1;" edge="1" parent="1" source="JlIgbwBgRPBbhnpNCOYC-41" target="JlIgbwBgRPBbhnpNCOYC-43">
          <mxGeometry relative="1" as="geometry">
            <mxPoint x="800" y="1110" as="targetPoint" />
          </mxGeometry>
        </mxCell>
        <mxCell id="JlIgbwBgRPBbhnpNCOYC-46" style="edgeStyle=orthogonalEdgeStyle;rounded=0;orthogonalLoop=1;jettySize=auto;html=1;" edge="1" parent="1" source="JlIgbwBgRPBbhnpNCOYC-41" target="JlIgbwBgRPBbhnpNCOYC-47">
          <mxGeometry relative="1" as="geometry">
            <mxPoint x="670" y="1190" as="targetPoint" />
          </mxGeometry>
        </mxCell>
        <mxCell id="JlIgbwBgRPBbhnpNCOYC-41" value="3" style="ellipse;whiteSpace=wrap;html=1;aspect=fixed;" vertex="1" parent="1">
          <mxGeometry x="640" y="1080" width="60" height="60" as="geometry" />
        </mxCell>
        <mxCell id="JlIgbwBgRPBbhnpNCOYC-44" style="edgeStyle=orthogonalEdgeStyle;rounded=0;orthogonalLoop=1;jettySize=auto;html=1;" edge="1" parent="1" source="JlIgbwBgRPBbhnpNCOYC-43" target="JlIgbwBgRPBbhnpNCOYC-45">
          <mxGeometry relative="1" as="geometry">
            <mxPoint x="1010" y="1105" as="targetPoint" />
          </mxGeometry>
        </mxCell>
        <mxCell id="JlIgbwBgRPBbhnpNCOYC-43" value="Snow boots will keep your feet warm!" style="shape=parallelogram;perimeter=parallelogramPerimeter;whiteSpace=wrap;html=1;fixedSize=1;" vertex="1" parent="1">
          <mxGeometry x="770" y="1075" width="160" height="70" as="geometry" />
        </mxCell>
        <mxCell id="JlIgbwBgRPBbhnpNCOYC-120" style="edgeStyle=orthogonalEdgeStyle;rounded=0;orthogonalLoop=1;jettySize=auto;html=1;" edge="1" parent="1" source="JlIgbwBgRPBbhnpNCOYC-45">
          <mxGeometry relative="1" as="geometry">
            <mxPoint x="1300" y="1110" as="targetPoint" />
          </mxGeometry>
        </mxCell>
        <mxCell id="JlIgbwBgRPBbhnpNCOYC-45" value="break" style="rounded=0;whiteSpace=wrap;html=1;" vertex="1" parent="1">
          <mxGeometry x="1000" y="1080" width="120" height="60" as="geometry" />
        </mxCell>
        <mxCell id="JlIgbwBgRPBbhnpNCOYC-48" style="edgeStyle=orthogonalEdgeStyle;rounded=0;orthogonalLoop=1;jettySize=auto;html=1;" edge="1" parent="1" source="JlIgbwBgRPBbhnpNCOYC-47" target="JlIgbwBgRPBbhnpNCOYC-49">
          <mxGeometry relative="1" as="geometry">
            <mxPoint x="810" y="1199" as="targetPoint" />
          </mxGeometry>
        </mxCell>
        <mxCell id="JlIgbwBgRPBbhnpNCOYC-52" style="edgeStyle=orthogonalEdgeStyle;rounded=0;orthogonalLoop=1;jettySize=auto;html=1;" edge="1" parent="1" source="JlIgbwBgRPBbhnpNCOYC-47" target="JlIgbwBgRPBbhnpNCOYC-53">
          <mxGeometry relative="1" as="geometry">
            <mxPoint x="670" y="1270" as="targetPoint" />
          </mxGeometry>
        </mxCell>
        <mxCell id="JlIgbwBgRPBbhnpNCOYC-47" value="4" style="ellipse;whiteSpace=wrap;html=1;aspect=fixed;" vertex="1" parent="1">
          <mxGeometry x="640" y="1169" width="60" height="60" as="geometry" />
        </mxCell>
        <mxCell id="JlIgbwBgRPBbhnpNCOYC-50" style="edgeStyle=orthogonalEdgeStyle;rounded=0;orthogonalLoop=1;jettySize=auto;html=1;" edge="1" parent="1" source="JlIgbwBgRPBbhnpNCOYC-49" target="JlIgbwBgRPBbhnpNCOYC-51">
          <mxGeometry relative="1" as="geometry">
            <mxPoint x="1000" y="1199" as="targetPoint" />
          </mxGeometry>
        </mxCell>
        <mxCell id="JlIgbwBgRPBbhnpNCOYC-49" value="Wear something sturdy!" style="shape=parallelogram;perimeter=parallelogramPerimeter;whiteSpace=wrap;html=1;fixedSize=1;" vertex="1" parent="1">
          <mxGeometry x="760" y="1169" width="160" height="60" as="geometry" />
        </mxCell>
        <mxCell id="JlIgbwBgRPBbhnpNCOYC-121" style="edgeStyle=orthogonalEdgeStyle;rounded=0;orthogonalLoop=1;jettySize=auto;html=1;" edge="1" parent="1" source="JlIgbwBgRPBbhnpNCOYC-51">
          <mxGeometry relative="1" as="geometry">
            <mxPoint x="1300" y="1199" as="targetPoint" />
          </mxGeometry>
        </mxCell>
        <mxCell id="JlIgbwBgRPBbhnpNCOYC-51" value="break" style="rounded=0;whiteSpace=wrap;html=1;" vertex="1" parent="1">
          <mxGeometry x="1000" y="1169" width="120" height="60" as="geometry" />
        </mxCell>
        <mxCell id="JlIgbwBgRPBbhnpNCOYC-54" style="edgeStyle=orthogonalEdgeStyle;rounded=0;orthogonalLoop=1;jettySize=auto;html=1;" edge="1" parent="1" source="JlIgbwBgRPBbhnpNCOYC-53" target="JlIgbwBgRPBbhnpNCOYC-55">
          <mxGeometry relative="1" as="geometry">
            <mxPoint x="780" y="1285" as="targetPoint" />
          </mxGeometry>
        </mxCell>
        <mxCell id="JlIgbwBgRPBbhnpNCOYC-91" style="edgeStyle=orthogonalEdgeStyle;rounded=0;orthogonalLoop=1;jettySize=auto;html=1;" edge="1" parent="1" source="JlIgbwBgRPBbhnpNCOYC-53" target="JlIgbwBgRPBbhnpNCOYC-92">
          <mxGeometry relative="1" as="geometry">
            <mxPoint x="670" y="1410" as="targetPoint" />
          </mxGeometry>
        </mxCell>
        <mxCell id="JlIgbwBgRPBbhnpNCOYC-53" value="default" style="rounded=1;whiteSpace=wrap;html=1;" vertex="1" parent="1">
          <mxGeometry x="645" y="1260" width="50" height="50" as="geometry" />
        </mxCell>
        <mxCell id="JlIgbwBgRPBbhnpNCOYC-55" value="break" style="rounded=0;whiteSpace=wrap;html=1;" vertex="1" parent="1">
          <mxGeometry x="770" y="1255" width="120" height="60" as="geometry" />
        </mxCell>
        <mxCell id="JlIgbwBgRPBbhnpNCOYC-57" value="Hi" style="text;html=1;align=center;verticalAlign=middle;resizable=0;points=[];autosize=1;strokeColor=none;fillColor=none;" vertex="1" parent="1">
          <mxGeometry x="180" y="360" width="30" height="30" as="geometry" />
        </mxCell>
        <mxCell id="JlIgbwBgRPBbhnpNCOYC-60" style="edgeStyle=orthogonalEdgeStyle;rounded=0;orthogonalLoop=1;jettySize=auto;html=1;" edge="1" parent="1" source="JlIgbwBgRPBbhnpNCOYC-58" target="JlIgbwBgRPBbhnpNCOYC-62">
          <mxGeometry relative="1" as="geometry">
            <mxPoint x="210" y="455" as="targetPoint" />
          </mxGeometry>
        </mxCell>
        <mxCell id="JlIgbwBgRPBbhnpNCOYC-61" value="Так" style="edgeLabel;html=1;align=center;verticalAlign=middle;resizable=0;points=[];" connectable="0" vertex="1" parent="JlIgbwBgRPBbhnpNCOYC-60">
          <mxGeometry x="-0.2909" y="2" relative="1" as="geometry">
            <mxPoint as="offset" />
          </mxGeometry>
        </mxCell>
        <mxCell id="JlIgbwBgRPBbhnpNCOYC-70" style="edgeStyle=orthogonalEdgeStyle;rounded=0;orthogonalLoop=1;jettySize=auto;html=1;exitX=0;exitY=0.5;exitDx=0;exitDy=0;" edge="1" parent="1" source="JlIgbwBgRPBbhnpNCOYC-58" target="JlIgbwBgRPBbhnpNCOYC-72">
          <mxGeometry relative="1" as="geometry">
            <mxPoint x="-110" y="455" as="targetPoint" />
            <Array as="points">
              <mxPoint x="-70" y="455" />
              <mxPoint x="-70" y="490" />
            </Array>
          </mxGeometry>
        </mxCell>
        <mxCell id="JlIgbwBgRPBbhnpNCOYC-71" value="Ні" style="edgeLabel;html=1;align=center;verticalAlign=middle;resizable=0;points=[];" connectable="0" vertex="1" parent="JlIgbwBgRPBbhnpNCOYC-70">
          <mxGeometry x="-0.0647" y="-1" relative="1" as="geometry">
            <mxPoint as="offset" />
          </mxGeometry>
        </mxCell>
        <mxCell id="JlIgbwBgRPBbhnpNCOYC-58" value="weather == rainy" style="rhombus;whiteSpace=wrap;html=1;" vertex="1" parent="1">
          <mxGeometry x="-10" y="400" width="120" height="110" as="geometry" />
        </mxCell>
        <mxCell id="JlIgbwBgRPBbhnpNCOYC-63" style="edgeStyle=orthogonalEdgeStyle;rounded=0;orthogonalLoop=1;jettySize=auto;html=1;" edge="1" parent="1" source="JlIgbwBgRPBbhnpNCOYC-62" target="JlIgbwBgRPBbhnpNCOYC-64">
          <mxGeometry relative="1" as="geometry">
            <mxPoint x="255" y="560" as="targetPoint" />
          </mxGeometry>
        </mxCell>
        <mxCell id="JlIgbwBgRPBbhnpNCOYC-62" value="Perfect weather to read a book inside!" style="rounded=0;whiteSpace=wrap;html=1;shape=parallelogram;perimeter=parallelogramPerimeter;fixedSize=1;" vertex="1" parent="1">
          <mxGeometry x="190" y="450" width="130" height="60" as="geometry" />
        </mxCell>
        <mxCell id="JlIgbwBgRPBbhnpNCOYC-65" style="edgeStyle=orthogonalEdgeStyle;rounded=0;orthogonalLoop=1;jettySize=auto;html=1;" edge="1" parent="1" source="JlIgbwBgRPBbhnpNCOYC-64" target="JlIgbwBgRPBbhnpNCOYC-20">
          <mxGeometry relative="1" as="geometry">
            <Array as="points">
              <mxPoint x="770" y="550" />
              <mxPoint x="770" y="730" />
            </Array>
          </mxGeometry>
        </mxCell>
        <mxCell id="JlIgbwBgRPBbhnpNCOYC-64" value="weath = 1" style="rounded=0;whiteSpace=wrap;html=1;" vertex="1" parent="1">
          <mxGeometry x="190" y="520" width="120" height="60" as="geometry" />
        </mxCell>
        <mxCell id="JlIgbwBgRPBbhnpNCOYC-69" style="edgeStyle=orthogonalEdgeStyle;rounded=0;orthogonalLoop=1;jettySize=auto;html=1;" edge="1" parent="1" source="JlIgbwBgRPBbhnpNCOYC-68" target="JlIgbwBgRPBbhnpNCOYC-20">
          <mxGeometry relative="1" as="geometry" />
        </mxCell>
        <mxCell id="JlIgbwBgRPBbhnpNCOYC-68" value="No jacket required" style="shape=parallelogram;perimeter=parallelogramPerimeter;whiteSpace=wrap;html=1;fixedSize=1;" vertex="1" parent="1">
          <mxGeometry x="280" y="650" width="120" height="60" as="geometry" />
        </mxCell>
        <mxCell id="JlIgbwBgRPBbhnpNCOYC-73" style="edgeStyle=orthogonalEdgeStyle;rounded=0;orthogonalLoop=1;jettySize=auto;html=1;exitX=1;exitY=0.5;exitDx=0;exitDy=0;" edge="1" parent="1" source="JlIgbwBgRPBbhnpNCOYC-72" target="JlIgbwBgRPBbhnpNCOYC-75">
          <mxGeometry relative="1" as="geometry">
            <mxPoint x="-20" y="540" as="targetPoint" />
          </mxGeometry>
        </mxCell>
        <mxCell id="JlIgbwBgRPBbhnpNCOYC-74" value="Так" style="edgeLabel;html=1;align=center;verticalAlign=middle;resizable=0;points=[];" connectable="0" vertex="1" parent="JlIgbwBgRPBbhnpNCOYC-73">
          <mxGeometry x="0.0084" relative="1" as="geometry">
            <mxPoint as="offset" />
          </mxGeometry>
        </mxCell>
        <mxCell id="JlIgbwBgRPBbhnpNCOYC-84" style="edgeStyle=orthogonalEdgeStyle;rounded=0;orthogonalLoop=1;jettySize=auto;html=1;exitX=0;exitY=0.5;exitDx=0;exitDy=0;" edge="1" parent="1" source="JlIgbwBgRPBbhnpNCOYC-72" target="JlIgbwBgRPBbhnpNCOYC-85">
          <mxGeometry relative="1" as="geometry">
            <mxPoint x="-350" y="532" as="targetPoint" />
            <Array as="points">
              <mxPoint x="-340" y="550" />
              <mxPoint x="-340" y="550" />
            </Array>
          </mxGeometry>
        </mxCell>
        <mxCell id="JlIgbwBgRPBbhnpNCOYC-72" value="weather == cloudy" style="rhombus;whiteSpace=wrap;html=1;" vertex="1" parent="1">
          <mxGeometry x="-250" y="480" width="120" height="105" as="geometry" />
        </mxCell>
        <mxCell id="JlIgbwBgRPBbhnpNCOYC-76" style="edgeStyle=orthogonalEdgeStyle;rounded=0;orthogonalLoop=1;jettySize=auto;html=1;" edge="1" parent="1" source="JlIgbwBgRPBbhnpNCOYC-75" target="JlIgbwBgRPBbhnpNCOYC-77">
          <mxGeometry relative="1" as="geometry">
            <mxPoint x="30" y="660" as="targetPoint" />
          </mxGeometry>
        </mxCell>
        <mxCell id="JlIgbwBgRPBbhnpNCOYC-75" value="Maybe visit a museum?" style="shape=parallelogram;perimeter=parallelogramPerimeter;whiteSpace=wrap;html=1;fixedSize=1;" vertex="1" parent="1">
          <mxGeometry x="-30" y="600" width="120" height="60" as="geometry" />
        </mxCell>
        <mxCell id="JlIgbwBgRPBbhnpNCOYC-78" style="edgeStyle=orthogonalEdgeStyle;rounded=0;orthogonalLoop=1;jettySize=auto;html=1;" edge="1" parent="1" source="JlIgbwBgRPBbhnpNCOYC-77" target="JlIgbwBgRPBbhnpNCOYC-20">
          <mxGeometry relative="1" as="geometry" />
        </mxCell>
        <mxCell id="JlIgbwBgRPBbhnpNCOYC-77" value="weath = 2" style="shape=label;whiteSpace=wrap;html=1;fixedSize=1;rounded=0;" vertex="1" parent="1">
          <mxGeometry x="-30" y="750" width="120" height="60" as="geometry" />
        </mxCell>
        <mxCell id="JlIgbwBgRPBbhnpNCOYC-83" value="" style="edgeStyle=orthogonalEdgeStyle;rounded=0;orthogonalLoop=1;jettySize=auto;html=1;entryX=0.5;entryY=0;entryDx=0;entryDy=0;" edge="1" parent="1" source="JlIgbwBgRPBbhnpNCOYC-14" target="JlIgbwBgRPBbhnpNCOYC-18">
          <mxGeometry relative="1" as="geometry">
            <mxPoint x="545" y="570.0000000000002" as="targetPoint" />
            <mxPoint x="525" y="610" as="sourcePoint" />
          </mxGeometry>
        </mxCell>
        <mxCell id="JlIgbwBgRPBbhnpNCOYC-122" value="Так" style="edgeLabel;html=1;align=center;verticalAlign=middle;resizable=0;points=[];" connectable="0" vertex="1" parent="JlIgbwBgRPBbhnpNCOYC-83">
          <mxGeometry x="-0.1085" y="2" relative="1" as="geometry">
            <mxPoint x="-30" y="32" as="offset" />
          </mxGeometry>
        </mxCell>
        <mxCell id="JlIgbwBgRPBbhnpNCOYC-93" style="edgeStyle=orthogonalEdgeStyle;rounded=0;orthogonalLoop=1;jettySize=auto;html=1;" edge="1" parent="1" source="JlIgbwBgRPBbhnpNCOYC-85" target="JlIgbwBgRPBbhnpNCOYC-95">
          <mxGeometry relative="1" as="geometry">
            <mxPoint x="-240" y="660" as="targetPoint" />
          </mxGeometry>
        </mxCell>
        <mxCell id="JlIgbwBgRPBbhnpNCOYC-94" value="Так" style="edgeLabel;html=1;align=center;verticalAlign=middle;resizable=0;points=[];" connectable="0" vertex="1" parent="JlIgbwBgRPBbhnpNCOYC-93">
          <mxGeometry x="-0.5529" y="8" relative="1" as="geometry">
            <mxPoint x="-1" as="offset" />
          </mxGeometry>
        </mxCell>
        <mxCell id="JlIgbwBgRPBbhnpNCOYC-96" style="edgeStyle=orthogonalEdgeStyle;rounded=0;orthogonalLoop=1;jettySize=auto;html=1;" edge="1" parent="1" source="JlIgbwBgRPBbhnpNCOYC-85" target="JlIgbwBgRPBbhnpNCOYC-102">
          <mxGeometry relative="1" as="geometry">
            <mxPoint x="-620" y="585" as="targetPoint" />
            <Array as="points">
              <mxPoint x="-525" y="585" />
              <mxPoint x="-525" y="610" />
            </Array>
          </mxGeometry>
        </mxCell>
        <mxCell id="JlIgbwBgRPBbhnpNCOYC-85" value="weather == snowy" style="rhombus;whiteSpace=wrap;html=1;" vertex="1" parent="1">
          <mxGeometry x="-440" y="530" width="120" height="110" as="geometry" />
        </mxCell>
        <mxCell id="JlIgbwBgRPBbhnpNCOYC-86" value="Hi" style="text;html=1;align=center;verticalAlign=middle;resizable=0;points=[];autosize=1;strokeColor=none;fillColor=none;" vertex="1" parent="1">
          <mxGeometry x="-300" y="530" width="30" height="30" as="geometry" />
        </mxCell>
        <mxCell id="JlIgbwBgRPBbhnpNCOYC-92" value="End" style="ellipse;whiteSpace=wrap;html=1;fillColor=#f8cecc;strokeColor=#b85450;" vertex="1" parent="1">
          <mxGeometry x="-60" y="1480" width="120" height="80" as="geometry" />
        </mxCell>
        <mxCell id="JlIgbwBgRPBbhnpNCOYC-99" style="edgeStyle=orthogonalEdgeStyle;rounded=0;orthogonalLoop=1;jettySize=auto;html=1;exitX=0.5;exitY=1;exitDx=0;exitDy=0;" edge="1" parent="1" source="JlIgbwBgRPBbhnpNCOYC-95" target="JlIgbwBgRPBbhnpNCOYC-100">
          <mxGeometry relative="1" as="geometry">
            <mxPoint x="-225.05263157894728" y="750" as="targetPoint" />
          </mxGeometry>
        </mxCell>
        <mxCell id="JlIgbwBgRPBbhnpNCOYC-95" value="How about making a snowman?" style="shape=parallelogram;perimeter=parallelogramPerimeter;whiteSpace=wrap;html=1;fixedSize=1;" vertex="1" parent="1">
          <mxGeometry x="-300" y="620" width="150" height="70" as="geometry" />
        </mxCell>
        <mxCell id="JlIgbwBgRPBbhnpNCOYC-97" value="Ні" style="text;html=1;align=center;verticalAlign=middle;resizable=0;points=[];autosize=1;strokeColor=none;fillColor=none;" vertex="1" parent="1">
          <mxGeometry x="-500" y="560" width="30" height="30" as="geometry" />
        </mxCell>
        <mxCell id="JlIgbwBgRPBbhnpNCOYC-101" style="edgeStyle=orthogonalEdgeStyle;rounded=0;orthogonalLoop=1;jettySize=auto;html=1;entryX=0;entryY=1;entryDx=0;entryDy=0;" edge="1" parent="1" source="JlIgbwBgRPBbhnpNCOYC-100" target="JlIgbwBgRPBbhnpNCOYC-20">
          <mxGeometry relative="1" as="geometry">
            <Array as="points">
              <mxPoint x="600" y="830" />
              <mxPoint x="600" y="750" />
            </Array>
          </mxGeometry>
        </mxCell>
        <mxCell id="JlIgbwBgRPBbhnpNCOYC-100" value="weath = 3" style="rounded=0;whiteSpace=wrap;html=1;" vertex="1" parent="1">
          <mxGeometry x="-285.0026315789473" y="800" width="120" height="60" as="geometry" />
        </mxCell>
        <mxCell id="JlIgbwBgRPBbhnpNCOYC-104" style="edgeStyle=orthogonalEdgeStyle;rounded=0;orthogonalLoop=1;jettySize=auto;html=1;" edge="1" parent="1" source="JlIgbwBgRPBbhnpNCOYC-102" target="JlIgbwBgRPBbhnpNCOYC-106">
          <mxGeometry relative="1" as="geometry">
            <mxPoint x="-420" y="650" as="targetPoint" />
          </mxGeometry>
        </mxCell>
        <mxCell id="JlIgbwBgRPBbhnpNCOYC-105" value="Так" style="edgeLabel;html=1;align=center;verticalAlign=middle;resizable=0;points=[];" connectable="0" vertex="1" parent="JlIgbwBgRPBbhnpNCOYC-104">
          <mxGeometry x="-0.5889" y="4" relative="1" as="geometry">
            <mxPoint as="offset" />
          </mxGeometry>
        </mxCell>
        <mxCell id="JlIgbwBgRPBbhnpNCOYC-110" style="edgeStyle=orthogonalEdgeStyle;rounded=0;orthogonalLoop=1;jettySize=auto;html=1;" edge="1" parent="1" source="JlIgbwBgRPBbhnpNCOYC-102" target="JlIgbwBgRPBbhnpNCOYC-92">
          <mxGeometry relative="1" as="geometry">
            <mxPoint x="-665" y="1550" as="targetPoint" />
            <Array as="points">
              <mxPoint x="-790" y="640" />
              <mxPoint x="-790" y="1360" />
              <mxPoint y="1360" />
            </Array>
          </mxGeometry>
        </mxCell>
        <mxCell id="JlIgbwBgRPBbhnpNCOYC-111" value="Ні" style="edgeLabel;html=1;align=center;verticalAlign=middle;resizable=0;points=[];" connectable="0" vertex="1" parent="JlIgbwBgRPBbhnpNCOYC-110">
          <mxGeometry x="-0.0995" y="-1" relative="1" as="geometry">
            <mxPoint x="51" y="-705" as="offset" />
          </mxGeometry>
        </mxCell>
        <mxCell id="JlIgbwBgRPBbhnpNCOYC-102" value="weather == windy&amp;nbsp;" style="rhombus;whiteSpace=wrap;html=1;" vertex="1" parent="1">
          <mxGeometry x="-720" y="590" width="110" height="100" as="geometry" />
        </mxCell>
        <mxCell id="JlIgbwBgRPBbhnpNCOYC-107" style="edgeStyle=orthogonalEdgeStyle;rounded=0;orthogonalLoop=1;jettySize=auto;html=1;" edge="1" parent="1" source="JlIgbwBgRPBbhnpNCOYC-106" target="JlIgbwBgRPBbhnpNCOYC-108">
          <mxGeometry relative="1" as="geometry">
            <mxPoint x="-485" y="850" as="targetPoint" />
          </mxGeometry>
        </mxCell>
        <mxCell id="JlIgbwBgRPBbhnpNCOYC-106" value="Fly a kite if you have one!" style="shape=parallelogram;perimeter=parallelogramPerimeter;whiteSpace=wrap;html=1;fixedSize=1;" vertex="1" parent="1">
          <mxGeometry x="-570" y="700" width="170" height="70" as="geometry" />
        </mxCell>
        <mxCell id="JlIgbwBgRPBbhnpNCOYC-109" style="edgeStyle=orthogonalEdgeStyle;rounded=0;orthogonalLoop=1;jettySize=auto;html=1;entryX=0;entryY=1;entryDx=0;entryDy=0;" edge="1" parent="1" source="JlIgbwBgRPBbhnpNCOYC-108" target="JlIgbwBgRPBbhnpNCOYC-20">
          <mxGeometry relative="1" as="geometry">
            <Array as="points">
              <mxPoint x="610" y="920" />
              <mxPoint x="610" y="750" />
            </Array>
          </mxGeometry>
        </mxCell>
        <mxCell id="JlIgbwBgRPBbhnpNCOYC-108" value="weath = 3&amp;nbsp;" style="rounded=0;whiteSpace=wrap;html=1;" vertex="1" parent="1">
          <mxGeometry x="-545" y="890" width="120" height="60" as="geometry" />
        </mxCell>
      </root>
    </mxGraphModel>
  </diagram>
</mxfile>
